<?xml version="1.0" encoding="utf-8"?>
<!-- Generator: Adobe Illustrator 28.1.0, SVG Export Plug-In . SVG Version: 6.00 Build 0)  -->
<svg version="1.1" id="Layer_1" xmlns="http://www.w3.org/2000/svg" xmlns:xlink="http://www.w3.org/1999/xlink" x="0px" y="0px"
	 viewBox="0 0 380.5 353.9" style="enable-background:new 0 0 380.5 353.9;" xml:space="preserve">
<style type="text/css">
	.st0{fill:url(#SVGID_1_);}
	.st1{fill:url(#SVGID_00000011726888708074062740000015383742160772681893_);}
	.st2{fill:url(#SVGID_00000005971277754275386570000009274836491454028721_);}
	.st3{fill:url(#SVGID_00000124147706595427139480000010291003590762021789_);}
	.st4{fill:url(#SVGID_00000011748138269867858310000014115216337262033809_);}
	.st5{fill:url(#SVGID_00000038392975254752107040000016310330003541955207_);}
	.st6{fill:url(#SVGID_00000004529770056321655880000017268584000166647998_);}
	.st7{fill:url(#SVGID_00000112605922268724938240000011734389137683560879_);}
	.st8{fill:url(#SVGID_00000123401241416978410310000001082188816861599365_);}
	.st9{fill:url(#SVGID_00000153681207296911365980000003310354929130298552_);}
</style>
<g id="SvgjsG3424" transform="matrix(3.0381944444444446,0,0,3.0381944444444446,78.00000000000324,-7.595486111111112)">
	
		<linearGradient id="SVGID_1_" gradientUnits="userSpaceOnUse" x1="-63.3605" y1="190.7975" x2="-62.3605" y2="190.7975" gradientTransform="matrix(218.0961 0 0 -206.169 13819.7373 39397.2734)">
		<stop  offset="0" style="stop-color:#3A8DEA"/>
		<stop  offset="1" style="stop-color:#164B86"/>
	</linearGradient>
	<path class="st0" d="M66.1,26.8H7.8c-3.7,0-6.7,3-6.7,6.7v38.1c0,3.7,3,6.7,6.7,6.7h7c-1.5,2.3-0.9,5.5,1.4,7
		C17,86,18,86.3,19,86.3h22.9v3.2c0,2.9,2.3,5.2,5.2,5.2h20.6c2.9,0,5.2-2.3,5.2-5.2V33.5C72.8,29.8,69.8,26.8,66.1,26.8z M5.5,71.7
		V33.5c0-1.2,1-2.2,2.2-2.2h58.3c1.2,0,2.2,1,2.2,2.2v12.6c-0.2,0-0.5-0.1-0.7-0.1H47c-2.9,0-5.2,2.3-5.2,5.2v22.7H7.8
		C6.5,73.9,5.5,72.9,5.5,71.7z M19,81.8c-0.3,0-0.6-0.3-0.6-0.6c0-0.3,0.2-0.5,0.5-0.6c0,0,0,0,0,0h22.9v1.1H19z M68.4,89.5
		c0,0.4-0.3,0.7-0.7,0.7H47c-0.4,0-0.7-0.3-0.7-0.7V51.2c0-0.4,0.3-0.7,0.7-0.7h2.2V52c0,1.2,1,2.2,2.2,2.2h11.8
		c1.2,0,2.2-1,2.2-2.2v-1.5h2.2c0.4,0,0.7,0.3,0.7,0.7L68.4,89.5z"/>
	
		<linearGradient id="SVGID_00000163765606496490307800000005240391240389508521_" gradientUnits="userSpaceOnUse" x1="-60.8993" y1="184.2161" x2="-59.8993" y2="184.2161" gradientTransform="matrix(13.631 0 0 -13.631 885.0142 2597.8684)">
		<stop  offset="0" style="stop-color:#3A8DEA"/>
		<stop  offset="1" style="stop-color:#164B86"/>
	</linearGradient>
	
		<rect x="54.9" y="84.6" style="fill:url(#SVGID_00000163765606496490307800000005240391240389508521_);" width="4.5" height="4.5"/>
	
		<linearGradient id="SVGID_00000121958384358099491700000011110302302927720380_" gradientUnits="userSpaceOnUse" x1="-60.8993" y1="184.2161" x2="-59.8993" y2="184.2161" gradientTransform="matrix(13.631 0 0 -13.631 839.027 2546.2732)">
		<stop  offset="0" style="stop-color:#3A8DEA"/>
		<stop  offset="1" style="stop-color:#164B86"/>
	</linearGradient>
	<rect x="8.9" y="33" style="fill:url(#SVGID_00000121958384358099491700000011110302302927720380_);" width="4.5" height="4.5"/>
	
		<linearGradient id="SVGID_00000178922365687936746840000006099334608871400095_" gradientUnits="userSpaceOnUse" x1="-63.2859" y1="184.2161" x2="-62.2859" y2="184.2161" gradientTransform="matrix(149.9411 0 0 -13.631 9504.7979 2546.2732)">
		<stop  offset="0" style="stop-color:#3A8DEA"/>
		<stop  offset="1" style="stop-color:#164B86"/>
	</linearGradient>
	<rect x="15.6" y="33" style="fill:url(#SVGID_00000178922365687936746840000006099334608871400095_);" width="49.4" height="4.5"/>
	
		<linearGradient id="SVGID_00000054976484429228952750000008252744547358456234_" gradientUnits="userSpaceOnUse" x1="-60.8993" y1="184.2161" x2="-59.8993" y2="184.2161" gradientTransform="matrix(13.631 0 0 -13.631 839.027 2553.0029)">
		<stop  offset="0" style="stop-color:#3A8DEA"/>
		<stop  offset="1" style="stop-color:#164B86"/>
	</linearGradient>
	<rect x="8.9" y="39.7" style="fill:url(#SVGID_00000054976484429228952750000008252744547358456234_);" width="4.5" height="4.5"/>
	
		<linearGradient id="SVGID_00000042729943379601778460000009541666226843502264_" gradientUnits="userSpaceOnUse" x1="-63.2859" y1="184.2161" x2="-62.2859" y2="184.2161" gradientTransform="matrix(149.9411 0 0 -13.631 9504.7979 2553.0029)">
		<stop  offset="0" style="stop-color:#3A8DEA"/>
		<stop  offset="1" style="stop-color:#164B86"/>
	</linearGradient>
	
		<rect x="15.6" y="39.7" style="fill:url(#SVGID_00000042729943379601778460000009541666226843502264_);" width="49.4" height="4.5"/>
	
		<linearGradient id="SVGID_00000091696149338058081220000015501963601318416553_" gradientUnits="userSpaceOnUse" x1="-63.1357" y1="184.2161" x2="-62.1357" y2="184.2161" gradientTransform="matrix(92.0093 0 0 -13.631 5817.9761 2559.7327)">
		<stop  offset="0" style="stop-color:#3A8DEA"/>
		<stop  offset="1" style="stop-color:#164B86"/>
	</linearGradient>
	
		<rect x="8.9" y="46.4" style="fill:url(#SVGID_00000091696149338058081220000015501963601318416553_);" width="30.3" height="4.5"/>
	
		<linearGradient id="SVGID_00000162338107707084181280000012746201605830168503_" gradientUnits="userSpaceOnUse" x1="-63.1357" y1="184.2161" x2="-62.1357" y2="184.2161" gradientTransform="matrix(92.0093 0 0 -13.631 5817.9761 2566.4626)">
		<stop  offset="0" style="stop-color:#3A8DEA"/>
		<stop  offset="1" style="stop-color:#164B86"/>
	</linearGradient>
	
		<rect x="8.9" y="53.2" style="fill:url(#SVGID_00000162338107707084181280000012746201605830168503_);" width="30.3" height="4.5"/>
	
		<linearGradient id="SVGID_00000152251364615494165590000007787784593922060937_" gradientUnits="userSpaceOnUse" x1="-63.1357" y1="184.2161" x2="-62.1357" y2="184.2161" gradientTransform="matrix(92.0093 0 0 -13.631 5817.9761 2573.1924)">
		<stop  offset="0" style="stop-color:#3A8DEA"/>
		<stop  offset="1" style="stop-color:#164B86"/>
	</linearGradient>
	
		<rect x="8.9" y="59.9" style="fill:url(#SVGID_00000152251364615494165590000007787784593922060937_);" width="30.3" height="4.5"/>
	
		<linearGradient id="SVGID_00000093159597261256940980000000629094941030770600_" gradientUnits="userSpaceOnUse" x1="-63.1357" y1="184.2161" x2="-62.1357" y2="184.2161" gradientTransform="matrix(92.0093 0 0 -13.631 5817.9761 2579.9221)">
		<stop  offset="0" style="stop-color:#3A8DEA"/>
		<stop  offset="1" style="stop-color:#164B86"/>
	</linearGradient>
	
		<rect x="8.9" y="66.6" style="fill:url(#SVGID_00000093159597261256940980000000629094941030770600_);" width="30.3" height="4.5"/>
</g>
</svg>
