<svg id="eACFxc2eEdv1" xmlns="http://www.w3.org/2000/svg" xmlns:xlink="http://www.w3.org/1999/xlink" viewBox="0 0 300 79.911112" shape-rendering="geometricPrecision" text-rendering="geometricPrecision"><defs><linearGradient id="eACFxc2eEdv3-fill" x1="0" y1="0" x2="1" y2="0" spreadMethod="pad" gradientUnits="objectBoundingBox" gradientTransform="translate(0 0)"><stop id="eACFxc2eEdv3-fill-0" offset="0%" stop-color="#3a8dea"/><stop id="eACFxc2eEdv3-fill-1" offset="100%" stop-color="#164b86"/></linearGradient><linearGradient id="eACFxc2eEdv4-fill" x1="0" y1="0" x2="1" y2="0" spreadMethod="pad" gradientUnits="objectBoundingBox" gradientTransform="translate(0 0)"><stop id="eACFxc2eEdv4-fill-0" offset="0%" stop-color="#3a8dea"/><stop id="eACFxc2eEdv4-fill-1" offset="100%" stop-color="#164b86"/></linearGradient><linearGradient id="eACFxc2eEdv5-fill" x1="0" y1="0" x2="1" y2="0" spreadMethod="pad" gradientUnits="objectBoundingBox" gradientTransform="translate(0 0)"><stop id="eACFxc2eEdv5-fill-0" offset="0%" stop-color="#3a8dea"/><stop id="eACFxc2eEdv5-fill-1" offset="100%" stop-color="#164b86"/></linearGradient><linearGradient id="eACFxc2eEdv6-fill" x1="0" y1="0" x2="1" y2="0" spreadMethod="pad" gradientUnits="objectBoundingBox" gradientTransform="translate(0 0)"><stop id="eACFxc2eEdv6-fill-0" offset="0%" stop-color="#3a8dea"/><stop id="eACFxc2eEdv6-fill-1" offset="100%" stop-color="#164b86"/></linearGradient><linearGradient id="eACFxc2eEdv7-fill" x1="0" y1="0" x2="1" y2="0" spreadMethod="pad" gradientUnits="objectBoundingBox" gradientTransform="translate(0 0)"><stop id="eACFxc2eEdv7-fill-0" offset="0%" stop-color="#3a8dea"/><stop id="eACFxc2eEdv7-fill-1" offset="100%" stop-color="#164b86"/></linearGradient></defs><g transform="matrix(.888889 0 0 0.888889-4.44444-4.44444)"><path d="M78.4,66.5c-5.5,4.8-9.9,15.2-9.9,15.2s-6.9-11.4-12.9-15.3C46.1,60.3,42,60.2,42,60.2v4.8c0,0,7.8,1.2,11.7,4.6c8.2,7.1,14.8,18.5,14.8,18.5s5.9-13.1,11.6-17.6C88.1,64.3,95,65,95,65v-4.8c0-.1-9.9.5-16.6,6.3Z" fill="url(#eACFxc2eEdv3-fill)"/><path d="M42,80c-6.4-3.6-17.8-4.3-17.8-4.3s8.7-10.1,10.5-17C37.5,47.9,36.2,44,36.2,44l-4.6,1.6c0,0,1.3,7.7-.6,12.4-4.1,9.9-13,19.8-13,19.8s14.6,1.3,20.7,5.1c8.6,5.4,10.2,12,10.2,12l4.6-1.6c0,.1-3.8-8.9-11.5-13.3Z" fill="url(#eACFxc2eEdv4-fill)"/><path d="M35.3,36.8c11.3-.9,14.6-3.4,14.6-3.4l-3-3.8c0,0-6.9,3.7-12.1,3.4-10.9-.6-23.3-5.6-23.3-5.6s3.5,14,1.8,20.9C10.9,58.2,5,61.8,5,61.8l3,3.8c0,0,7.5-6.5,9.1-15.1c1.3-7.1-1.7-18-1.7-18s12.6,4.9,19.9,4.3Z" fill="url(#eACFxc2eEdv5-fill)"/><path d="M37.4,17.8c7.3-1.1,16.7-7.4,16.7-7.4s-.6,13.2,2.4,19.8c4.6,10.2,8,12.5,8,12.5l2.7-4c0,0-5.9-5.2-7.3-10.2C56.9,18.2,57.7,5,57.7,5s-12.3,7.8-19.5,8.5c-10.2,1-15.6-3.3-15.6-3.3l-2.7,4.1c0-.1,8.7,4.8,17.5,3.5Z" fill="url(#eACFxc2eEdv6-fill)"/><path d="M65,60.5c0,0,3.1-7.2,7.4-10.1c9-6.1,21.9-9.7,21.9-9.7s-11.5-8.9-14.5-15.4c-4.2-9.1-1.9-15.6-1.9-15.6L73.1,8.5c0,0-1.9,9.6,2.2,17.4c3.4,6.4,12.5,13.2,12.5,13.2s-12.8,3.8-18.2,8.7c-8.3,7.6-9.4,11.5-9.4,11.5L65,60.5Z" fill="url(#eACFxc2eEdv7-fill)"/></g><g transform="matrix(1.28321 0 0 1.28321 87.594 14.3957)"><path d="M9.1406,1.328h-7.2656L16.406,23.906v14.766h7.1094v-14.922L9.1406,1.328Zm28.9844,0h-6.7969L22.7343,13.594l3.8281,5.1563L38.125,1.328ZM72.813,27.344c-.98961,2.3959-2.3438,4.375-4.0625,5.9375-1.7709,1.6666-3.8542,2.9688-6.2501,3.9063s-5.0781,1.4063-8.0469,1.4063h-8.6719v-5.9375h8.5938c1.9791,0,3.776-.3125,5.3906-.9375c1.5625-.625,2.9166-1.5104,4.0625-2.6563s2.0313-2.5,2.6563-4.0625.9375-3.2813.9375-5.1563c0-1.8229-.3125-3.5156-.9375-5.0781-.625-1.6146-1.5104-2.9427-2.6563-3.9844-1.0416-1.0938-2.3958-1.9791-4.0624-2.6563-1.6666-.625-3.4635-.9375-5.3906-.9375h-8.5938v-5.9375h8.6719c2.7604,0,5.4166.49477,7.9688,1.4844c2.3959.88539,4.5052,2.2135,6.3281,3.9844c1.7709,1.6146,3.125,3.5938,4.0625,5.9375.98961,2.3959,1.4844,4.8438,1.4844,7.3438c0,2.7084-.49477,5.1563-1.4844,7.3438v-.0001ZM91.094,16.875v-15.547h-6.5625v37.344h6.5625v-21.797Zm17.89-15.547v15.547h-11.406v6.0938h11.406v15.703h6.4844v-37.344h-6.4844v.0002Zm41.719,37.2657h7.0313l-13.594-37.266h-7.1094l7.8906,22.266l5.7815,15Zm-28.7499,0h6.875l8.125-19.844-3.3594-8.9063-11.6406,28.7503Z" fill="#fff"/></g></svg>
