<?xml version="1.0" encoding="UTF-8"?>
<svg id="Layer_1" data-name="Layer 1" xmlns="http://www.w3.org/2000/svg" xmlns:xlink="http://www.w3.org/1999/xlink" viewBox="0 0 459.6 162.21">
  <defs>
    <style>
      .cls-1 {
        fill: url(#linear-gradient);
      }

      .cls-1, .cls-2, .cls-3, .cls-4, .cls-5, .cls-6, .cls-7 {
        stroke-width: 0px;
      }

      .cls-2 {
        fill: #1a1a1a;
      }

      .cls-3 {
        fill: url(#linear-gradient-5);
      }

      .cls-4 {
        fill: #fff;
      }

      .cls-5 {
        fill: url(#linear-gradient-2);
      }

      .cls-6 {
        fill: url(#linear-gradient-3);
      }

      .cls-7 {
        fill: url(#linear-gradient-4);
      }
    </style>
    <linearGradient id="linear-gradient" x1="-74.11" y1="467.88" x2="-73.11" y2="467.88" gradientTransform="translate(4790.82 15800.56) scale(63.68 -33.54)" gradientUnits="userSpaceOnUse">
      <stop offset="0" stop-color="#2b388a"/>
      <stop offset="1" stop-color="#1ca4c9"/>
    </linearGradient>
    <linearGradient id="linear-gradient-2" x1="-73.52" y1="472.11" x2="-72.52" y2="472.11" gradientTransform="translate(3178.85 28978.85) scale(42.66 -61.16)" xlink:href="#linear-gradient"/>
    <linearGradient id="linear-gradient-3" x1="-73.89" y1="470.41" x2="-72.89" y2="470.41" gradientTransform="translate(4013.6 21668.45) scale(53.95 -45.9)" xlink:href="#linear-gradient"/>
    <linearGradient id="linear-gradient-4" x1="-73.96" y1="470.31" x2="-72.96" y2="470.31" gradientTransform="translate(4248.62 21354.51) scale(56.83 -45.3)" xlink:href="#linear-gradient"/>
    <linearGradient id="linear-gradient-5" x1="-73.45" y1="472.22" x2="-72.45" y2="472.22" gradientTransform="translate(3102.91 29567.65) scale(40.97 -62.48)" xlink:href="#linear-gradient"/>
  </defs>
  <g id="SvgjsG5622">
    <rect class="cls-4" width="459.6" height="162.21" rx="13.52" ry="13.52"/>
  </g>
  <g id="SvgjsG5623">
    <g>
      <path class="cls-1" d="M115.23,100.93c-6.61,5.77-11.9,18.26-11.9,18.26,0,0-8.29-13.7-15.5-18.38-11.41-7.33-16.34-7.45-16.34-7.45v5.77s9.37,1.44,14.06,5.53c9.85,8.53,17.78,22.23,17.78,22.23,0,0,7.09-15.74,13.94-21.15,9.61-7.45,17.9-6.61,17.9-6.61v-5.77c0-.12-11.9.6-19.95,7.57Z"/>
      <path class="cls-5" d="M71.49,117.15c-7.69-4.33-21.39-5.17-21.39-5.17,0,0,10.45-12.14,12.62-20.43,3.36-12.98,1.8-17.66,1.8-17.66l-5.53,1.92s1.56,9.25-.72,14.9c-4.93,11.9-15.62,23.79-15.62,23.79,0,0,17.54,1.56,24.87,6.13,10.33,6.49,12.26,14.42,12.26,14.42l5.53-1.92c0,.12-4.57-10.69-13.82-15.98Z"/>
      <path class="cls-6" d="M63.44,65.25c13.58-1.08,17.54-4.09,17.54-4.09l-3.6-4.57s-8.29,4.45-14.54,4.09c-13.1-.72-28-6.73-28-6.73,0,0,4.21,16.82,2.16,25.11-2.88,11.9-9.97,16.22-9.97,16.22l3.6,4.57s9.01-7.81,10.93-18.14c1.56-8.53-2.04-21.63-2.04-21.63,0,0,15.14,5.89,23.91,5.17Z"/>
      <path class="cls-7" d="M65.97,42.42c8.77-1.32,20.07-8.89,20.07-8.89,0,0-.72,15.86,2.88,23.79,5.53,12.26,9.61,15.02,9.61,15.02l3.24-4.81s-7.09-6.25-8.77-12.26c-3.6-12.38-2.64-28.24-2.64-28.24,0,0-14.78,9.37-23.43,10.21-12.26,1.2-18.74-3.97-18.74-3.97l-3.24,4.93c0-.12,10.45,5.77,21.03,4.21Z"/>
      <path class="cls-3" d="M99.13,93.72s3.72-8.65,8.89-12.14c10.81-7.33,26.31-11.66,26.31-11.66,0,0-13.82-10.69-17.42-18.5-5.05-10.93-2.28-18.74-2.28-18.74l-5.77-1.44s-2.28,11.54,2.64,20.91c4.09,7.69,15.02,15.86,15.02,15.86,0,0-15.38,4.57-21.87,10.45-9.97,9.13-11.29,13.82-11.29,13.82l5.77,1.44Z"/>
    </g>
  </g>
  <g id="SvgjsG5624">
    <path class="cls-2" d="M174.81,48.8h-12.6l25.21,39.16v25.61h12.33v-25.88l-24.93-38.89ZM225.09,48.8h-11.79l-14.91,21.28,6.64,8.94,20.06-30.22ZM285.26,93.93c-1.72,4.16-4.07,7.59-7.05,10.3-3.07,2.89-6.69,5.15-10.84,6.78s-8.81,2.44-13.96,2.44h-15.04v-10.3h14.91c3.43,0,6.55-.54,9.35-1.63,2.71-1.08,5.06-2.62,7.05-4.61,1.99-1.99,3.52-4.34,4.61-7.05s1.63-5.69,1.63-8.94-.54-6.1-1.63-8.81c-1.08-2.8-2.62-5.1-4.61-6.91-1.81-1.9-4.16-3.43-7.05-4.61-2.89-1.08-6.01-1.63-9.35-1.63h-14.91v-10.3h15.04c4.79,0,9.4.86,13.82,2.57,4.16,1.54,7.81,3.84,10.98,6.91,3.07,2.8,5.42,6.23,7.05,10.3,1.72,4.16,2.57,8.4,2.57,12.74,0,4.7-.86,8.94-2.57,12.74h0ZM316.97,75.77v-26.97h-11.38v64.78h11.38v-37.81ZM348,48.8v26.97h-19.78v10.57h19.78v27.24h11.25V48.8h-11.25ZM420.37,113.44h12.2l-23.58-64.64h-12.33l13.69,38.62,10.03,26.02ZM370.5,113.44h11.93l14.09-34.42-5.83-15.45-20.19,49.87Z"/>
  </g>
</svg>