<?xml version="1.0" encoding="utf-8"?>
<!-- Generator: Adobe Illustrator 28.1.0, SVG Export Plug-In . SVG Version: 6.00 Build 0)  -->
<svg version="1.1" id="Layer_1" xmlns="http://www.w3.org/2000/svg" xmlns:xlink="http://www.w3.org/1999/xlink" x="0px" y="0px"
	 viewBox="0 0 380.5 353.9" style="enable-background:new 0 0 380.5 353.9;" xml:space="preserve">
<style type="text/css">
	.st0{fill:url(#SVGID_1_);}
	.st1{fill:url(#SVGID_00000181088850812273466330000006283647978469089925_);}
	.st2{fill:url(#SVGID_00000127766438430852607900000012702487557772177079_);}
	.st3{fill:url(#SVGID_00000117672537589030244800000008929401206155189640_);}
</style>
<g id="SvgjsG3644" transform="matrix(2.1604916293947576,0,0,2.1604916293947576,78.00004024029221,-11.14813647801209)">
	<g>
		
			<linearGradient id="SVGID_1_" gradientUnits="userSpaceOnUse" x1="-89.0217" y1="269.7684" x2="-88.0217" y2="269.7684" gradientTransform="matrix(194.3308 0 0 -172.0905 17306.6152 46513.293)">
			<stop  offset="0" style="stop-color:#3A8DEA"/>
			<stop  offset="1" style="stop-color:#164B86"/>
		</linearGradient>
		<path class="st0" d="M94.2,61h-6.8v-3.7c0-1.5-1.2-2.7-2.7-2.7H78v-3.1c0-1.5-1.2-2.7-2.7-2.7H28.5c-1.5,0-2.7,1.2-2.7,2.7v3.1
			h-6.8c-1.5,0-2.7,1.2-2.7,2.7V61H9.6C8.2,61,7,62.2,7,63.7c0,0,0,0,0,0v46.1c0,1.5,1.2,2.7,2.7,2.7h6.8v5.7c0,1.5,1.2,2.7,2.7,2.7
			h6.8v5c0,1.5,1.2,2.7,2.7,2.7h46.8c1.5,0,2.7-1.2,2.7-2.7v-5h6.8c1.5,0,2.7-1.2,2.7-2.7v-5.7h6.8c1.5,0,2.6-1.2,2.6-2.7V63.7
			C96.9,62.2,95.7,61,94.2,61C94.3,61,94.2,61,94.2,61z M93.1,108.7h-5.7v-44h5.7V108.7z M83.7,112.4v4.6H78V58.4h5.7V112.4
			L83.7,112.4z M74.2,120.8v3.9H29.6V90.6h44.6L74.2,120.8L74.2,120.8z M10.7,64.8h5.7v43.9h-5.7V64.8z M20.2,112.5V58.4h5.7v58.7
			h-5.7V112.5z M74.2,55.5v3.1l-2.2,2.2c-0.1-0.8-0.4-1.6-0.8-2.3l0,0l1.9-1.9L74.2,55.5z M64.8,86.8h-2.5l2.5-2.5l1.9-1.9l1.9-1.9
			l5.7-5.7V78l-5.7,5.7l-1.9,1.9l-1.3,1.3L64.8,86.8z M57.2,86.8h-1.4l1.4-1.4l1.9-1.9l5.7-5.7l1.9-1.9l1.9-1.9l5.7-5.7v3.1
			l-5.7,5.7l-1.9,1.9L64.8,81l-5.7,5.7l-0.1,0.1L57.2,86.8z M74.2,81.3v3.1l-2.4,2.4h-3.1L74.2,81.3z M74.2,64.8v0.3l-5.7,5.7
			l-1.9,1.9l-1.9,1.9L59,80.2l-1.8,1.9L55.3,84l-2.8,2.8h-3.1l6-6l1.9-1.9l1.9-1.9l5.7-5.7l1.9-1.9l1.9-1.9l2.8-2.8l1.9-1.9l1-1
			L74.2,64.8L74.2,64.8z M44.7,86.8h-1.8l1.9-1.9l1.9-1.9l1.9-1.9l6.8-6.8l1.9-1.9l1.9-1.9l4.6-4.6c0.7,0.4,1.5,0.7,2.3,0.8L64.8,68
			l-5.7,5.7l-1.9,1.9l-1.9,1.9l-6.8,6.8l-1.9,1.9l-0.6,0.6H44.7z M69.7,61c0,0.1,0,0.3,0,0.4c0,0.5-0.1,1-0.4,1.5
			c-0.2,0.4-0.5,0.7-0.8,1c-0.5,0.4-1.2,0.6-1.9,0.6l0,0c-0.4,0-0.8-0.1-1.2-0.2c-0.6-0.3-1.1-0.8-1.4-1.3c-0.3-0.4-0.4-1-0.4-1.5
			c0-0.1,0-0.3,0-0.4c0.1-1.2,1-2.2,2.2-2.6c0.3-0.1,0.6-0.2,0.9-0.2l0,0c0.3,0,0.6,0.1,0.9,0.2c0.1,0,0.2,0,0.3,0.1
			c0.2,0.1,0.5,0.2,0.7,0.4c0.4,0.3,0.8,0.8,1,1.3C69.6,60.4,69.7,60.7,69.7,61L69.7,61z M57.2,66l1.3-1.3l0.6-0.6l1.3-1.3l0.9-0.9
			c0.1,0.8,0.4,1.6,0.8,2.3l-0.4,0.4l-2.5,2.6l-1.9,1.9l-1.9,1.9l-6.8,6.8l-1.9,1.9l-1.9,1.9l-5.2,5.2h-3.1l0.8-0.8l1.9-1.9l5.7-5.7
			l1.9-1.9l1.9-1.9l6.8-6.8L57.2,66z M71.7,54.7l-1.9,1.9l-0.2,0.2c-0.1-0.1-0.3-0.2-0.4-0.2c-0.6-0.3-1.2-0.5-1.9-0.6l0.5-0.5
			l0.8-0.8l2-2h3.1L71.7,54.7z M65.3,54.7l-1.9,1.9l-1.9,1.9L58.9,61l-0.7,0.7L57,62.9l-0.2,0.2l-1.7,1.7l-6.6,6.6l-1.9,1.9
			l-1.9,1.9l-5.7,5.7l-1.9,1.9l-1.9,1.9l-2.2,2.2h-3.2l5.4-5.4l1.9-1.9l1.9-1.9l5.7-5.7l1.9-1.9l1.9-1.9l3.5-3.5l1.9-1.9l1.9-1.9
			l2.6-2.6l1.9-1.9l1.9-1.9l2-2h3.1L65.3,54.7z M58.8,54.7l-1.9,1.9l-1.9,1.9L52.5,61l-1.9,1.9l-1.9,1.9l-0.1,0.1l-1.9,1.9l-1.9,1.9
			l-5.7,5.7l-1.9,1.9l-1.9,1.9l-5.7,5.7v-3.2l5.7-5.7l1.9-1.9l1.9-1.9l5.7-5.7l0.8-0.8l1.1-1.1l0.7-0.7l0,0l1.9-1.9l2.6-2.6l1.9-1.9
			l1.9-1.9l2-2h3.2L58.8,54.7z M52.4,54.7l-1.9,1.9l-1.9,1.9L46,61l-1.9,1.9l-1.9,1.9l-3.1,3.1l-1.9,1.9l-1.9,1.9l-5.7,5.7v-3.2
			l5.7-5.7l1.9-1.8l1.9-1.9l0,0l1.8-1.9l1.9-1.9l2.6-2.6l1.9-1.9l1.9-1.9l2-2h3.1L52.4,54.7z M45.9,54.7L44,56.5l-1.9,1.9L39.5,61
			l-0.4,0.4l-1.4,1.4l-0.4,0.4l-1.4,1.4l-0.4,0.4l-5.7,5.7v-3.1l3-3l1.9-1.9l0.8-0.8l1.1-1.1l0.8-0.8l1.8-1.8l1.9-1.9l1.9-1.9l2-2
			h3.2L45.9,54.7z M39.4,54.7l-1.9,1.9l-1.9,1.9l-0.3,0.3L33.1,61l-1.9,1.9l-1.6,1.6v-3.1l0.3-0.3l2.6-2.6l1.9-1.9l1.9-1.9l2-2h3.1
			L39.4,54.7z M33,54.7l-1.9,1.9L29.6,58v-3.1l0.2-0.2l2-2H35L33,54.7z"/>
		
			<linearGradient id="SVGID_00000031188783994177354060000007728279948901582504_" gradientUnits="userSpaceOnUse" x1="-88.2895" y1="252.7958" x2="-87.2895" y2="252.7958" gradientTransform="matrix(57.781 0 0 -8.1187 5140.0024 2172.7136)">
			<stop  offset="0" style="stop-color:#3A8DEA"/>
			<stop  offset="1" style="stop-color:#164B86"/>
		</linearGradient>
		<path style="fill:url(#SVGID_00000031188783994177354060000007728279948901582504_);" d="M63.4,118.5h-23c-1,0-1.9,0.9-1.9,1.9
			c0,0.2,0,0.3,0.1,0.5c0.2,0.8,0.9,1.4,1.8,1.4h23c0.8,0,1.6-0.6,1.8-1.4c0.1-0.2,0.1-0.3,0.1-0.5
			C65.3,119.3,64.4,118.5,63.4,118.5z"/>
		
			<linearGradient id="SVGID_00000173158181673407779830000012640719377627921048_" gradientUnits="userSpaceOnUse" x1="-88.5688" y1="264.0912" x2="-87.5688" y2="264.0912" gradientTransform="matrix(78.9414 0 0 -22.189 7025.4102 5958.8032)">
			<stop  offset="0" style="stop-color:#3A8DEA"/>
			<stop  offset="1" style="stop-color:#164B86"/>
		</linearGradient>
		<path style="fill:url(#SVGID_00000173158181673407779830000012640719377627921048_);" d="M68.5,93.8c-0.1,0-0.1,0-0.2,0H35.5
			c-0.1,0-0.1,0-0.2,0c-0.9,0.1-1.7,0.9-1.7,1.8v6.6c0,0.9,0.7,1.7,1.7,1.8c0.1,0,0.1,0,0.2,0h32.8c0.1,0,0.1,0,0.2,0
			c0.9-0.1,1.7-0.9,1.7-1.8v-6.6C70.2,94.6,69.5,93.9,68.5,93.8z M66.4,100.3h-29v-2.8h29V100.3z"/>
		
			<linearGradient id="SVGID_00000160901778004188002850000016773282352573803187_" gradientUnits="userSpaceOnUse" x1="-88.5688" y1="264.0912" x2="-87.5688" y2="264.0912" gradientTransform="matrix(78.9414 0 0 -22.189 7025.4102 5971.1963)">
			<stop  offset="0" style="stop-color:#3A8DEA"/>
			<stop  offset="1" style="stop-color:#164B86"/>
		</linearGradient>
		<path style="fill:url(#SVGID_00000160901778004188002850000016773282352573803187_);" d="M68.5,106.1c-0.1,0-0.1,0-0.2,0H35.5
			c-0.1,0-0.1,0-0.2,0c-0.9,0.1-1.7,0.9-1.7,1.8v6.6c0,0.9,0.7,1.7,1.7,1.8c0.1,0,0.1,0,0.2,0h32.8c0.1,0,0.1,0,0.2,0
			c0.9-0.1,1.7-0.9,1.7-1.8V108C70.2,107,69.5,106.2,68.5,106.1z M66.4,112.7h-29v-2.8h29V112.7z"/>
	</g>
</g>
</svg>
