<?xml version="1.0" encoding="utf-8"?>
<!-- Generator: Adobe Illustrator 28.1.0, SVG Export Plug-In . SVG Version: 6.00 Build 0)  -->
<svg version="1.1" id="Layer_1" xmlns="http://www.w3.org/2000/svg" xmlns:xlink="http://www.w3.org/1999/xlink" x="0px" y="0px"
	 viewBox="0 0 380.5 353.9" style="enable-background:new 0 0 380.5 353.9;" xml:space="preserve">
<style type="text/css">
	.st0{display:none;}
	.st1{display:inline;}
	.st2{fill:none;stroke:url(#SVGID_1_);stroke-width:0.3523;stroke-miterlimit:35.2327;}
	
		.st3{fill:none;stroke:url(#SVGID_00000145036772524165611220000003958352737640049561_);stroke-width:0.3523;stroke-miterlimit:35.2327;}
	
		.st4{fill:none;stroke:url(#SVGID_00000029756741302866188060000002762381181178622633_);stroke-width:0.3523;stroke-miterlimit:35.2327;}
	
		.st5{fill:none;stroke:url(#SVGID_00000012442503798815175240000013381399890481532051_);stroke-width:0.3523;stroke-miterlimit:35.2327;}
	
		.st6{fill:none;stroke:url(#SVGID_00000019678270784698270210000004909164770747952553_);stroke-width:0.3523;stroke-miterlimit:35.2327;}
	
		.st7{fill:none;stroke:url(#SVGID_00000101815196414963796290000017353191807332178309_);stroke-width:0.3523;stroke-miterlimit:35.2327;}
	
		.st8{fill:none;stroke:url(#SVGID_00000012468481063553876280000006896053076900416157_);stroke-width:0.3523;stroke-miterlimit:35.2327;}
	
		.st9{fill:none;stroke:url(#SVGID_00000158712607957030972390000006562539395535911860_);stroke-width:0.3523;stroke-miterlimit:35.2327;}
	
		.st10{fill:none;stroke:url(#SVGID_00000085938858924382757340000014090393780962641084_);stroke-width:0.3523;stroke-miterlimit:35.2327;}
	
		.st11{fill:none;stroke:url(#SVGID_00000063597776680753427830000010133678542938565301_);stroke-width:0.3523;stroke-miterlimit:35.2327;}
	
		.st12{fill:none;stroke:url(#SVGID_00000119801565225605557240000011150824914284812951_);stroke-width:0.3523;stroke-miterlimit:35.2327;}
	.st13{fill:url(#SVGID_00000115510499500539053470000017864365669221910656_);}
	.st14{fill:url(#SVGID_00000146482082839013372280000011805429569571269516_);}
	.st15{fill:url(#SVGID_00000070106471421079771110000016320826464843805627_);}
	.st16{fill:none;}
	.st17{fill:url(#SVGID_00000081617616770041864100000003180231597784058504_);}
	.st18{fill:url(#SVGID_00000179625475829705765190000013476090350772824741_);}
	.st19{fill:url(#SVGID_00000027566365237810205530000009353022672653708190_);}
	.st20{fill:url(#SVGID_00000173133339996123816560000017662799280426353062_);}
	.st21{fill:url(#SVGID_00000058587167294628666120000014116664194596988575_);}
	.st22{fill:url(#SVGID_00000161630111213401252730000004503928241225131170_);}
	.st23{fill:url(#SVGID_00000034774432037992158300000018245231147332596630_);}
</style>
<g id="SvgjsG1715" transform="matrix(3.240740740740741,0,0,3.240740740740741,71.51851851851852,-6.481481481481482)">
	<g class="st0">
		<g class="st1">
			
				<linearGradient id="SVGID_1_" gradientUnits="userSpaceOnUse" x1="-57.3868" y1="178.5435" x2="-56.3868" y2="178.5435" gradientTransform="matrix(211.396 0 0 -211.396 12135.3545 37799.9727)">
				<stop  offset="0" style="stop-color:#3a8dea"/>
				<stop  offset="1" style="stop-color:#164b86"/>
			</linearGradient>
			<rect x="4" y="24" class="st2" width="65.2" height="65.2"/>
			
				<linearGradient id="SVGID_00000072970567047630655820000014919939815436505474_" gradientUnits="userSpaceOnUse" x1="-47.5036" y1="178.5435" x2="-46.5036" y2="178.5435" gradientTransform="matrix(3.5233 0 0 -211.396 204.007 37799.9727)">
				<stop  offset="0" style="stop-color:#3a8dea"/>
				<stop  offset="1" style="stop-color:#164b86"/>
			</linearGradient>
			
				<line style="fill:none;stroke:url(#SVGID_00000072970567047630655820000014919939815436505474_);stroke-width:0.3523;stroke-miterlimit:35.2327;" x1="36.6" y1="24" x2="36.6" y2="89.2"/>
			
				<linearGradient id="SVGID_00000018954978483765467240000005111490196660153257_" gradientUnits="userSpaceOnUse" x1="-57.3868" y1="153.7877" x2="-56.3868" y2="153.7877" gradientTransform="matrix(211.396 0 0 -3.5233 12135.3545 598.4341)">
				<stop  offset="0" style="stop-color:#3a8dea"/>
				<stop  offset="1" style="stop-color:#164b86"/>
			</linearGradient>
			
				<line style="fill:none;stroke:url(#SVGID_00000018954978483765467240000005111490196660153257_);stroke-width:0.3523;stroke-miterlimit:35.2327;" x1="69.3" y1="56.6" x2="4" y2="56.6"/>
			
				<linearGradient id="SVGID_00000008151058310179141710000016196125856130277798_" gradientUnits="userSpaceOnUse" x1="-57.3868" y1="178.5435" x2="-56.3868" y2="178.5435" gradientTransform="matrix(211.396 0 0 -211.396 12135.3545 37799.9727)">
				<stop  offset="0" style="stop-color:#3a8dea"/>
				<stop  offset="1" style="stop-color:#164b86"/>
			</linearGradient>
			
				<line style="fill:none;stroke:url(#SVGID_00000008151058310179141710000016196125856130277798_);stroke-width:0.3523;stroke-miterlimit:35.2327;" x1="4" y1="24" x2="69.3" y2="89.2"/>
			
				<linearGradient id="SVGID_00000124874862624993389600000009125972837623366808_" gradientUnits="userSpaceOnUse" x1="-57.3259" y1="178.39" x2="-56.3259" y2="178.39" gradientTransform="matrix(155.0237 0 0 -155.0237 8899.5879 27711.2715)">
				<stop  offset="0" style="stop-color:#3a8dea"/>
				<stop  offset="1" style="stop-color:#164b86"/>
			</linearGradient>
			
				<rect x="12.7" y="32.7" style="fill:none;stroke:url(#SVGID_00000124874862624993389600000009125972837623366808_);stroke-width:0.3523;stroke-miterlimit:35.2327;" width="47.8" height="47.8"/>
			
				<linearGradient id="SVGID_00000158026256447076622770000006741187851230569909_" gradientUnits="userSpaceOnUse" x1="-57.3868" y1="178.5435" x2="-56.3868" y2="178.5435" gradientTransform="matrix(211.396 0 0 -211.396 12135.3545 37799.9727)">
				<stop  offset="0" style="stop-color:#3a8dea"/>
				<stop  offset="1" style="stop-color:#164b86"/>
			</linearGradient>
			
				<line style="fill:none;stroke:url(#SVGID_00000158026256447076622770000006741187851230569909_);stroke-width:0.3523;stroke-miterlimit:35.2327;" x1="69.3" y1="24" x2="4" y2="89.2"/>
			
				<linearGradient id="SVGID_00000118396049688762863550000006818578039772805253_" gradientUnits="userSpaceOnUse" x1="-57.2193" y1="178.1213" x2="-56.2193" y2="178.1213" gradientTransform="matrix(105.698 0 0 -105.698 6051.9834 18867.3516)">
				<stop  offset="0" style="stop-color:#3a8dea"/>
				<stop  offset="1" style="stop-color:#164b86"/>
			</linearGradient>
			
				<line style="fill:none;stroke:url(#SVGID_00000118396049688762863550000006818578039772805253_);stroke-width:0.3523;stroke-miterlimit:35.2327;" x1="4" y1="56.6" x2="36.6" y2="24"/>
			
				<linearGradient id="SVGID_00000119110058086743329440000001969125163301131707_" gradientUnits="userSpaceOnUse" x1="-57.2193" y1="178.1213" x2="-56.2193" y2="178.1213" gradientTransform="matrix(105.698 0 0 -105.698 6084.5991 18867.3516)">
				<stop  offset="0" style="stop-color:#3a8dea"/>
				<stop  offset="1" style="stop-color:#164b86"/>
			</linearGradient>
			
				<line style="fill:none;stroke:url(#SVGID_00000119110058086743329440000001969125163301131707_);stroke-width:0.3523;stroke-miterlimit:35.2327;" x1="36.6" y1="24" x2="69.3" y2="56.6"/>
			
				<linearGradient id="SVGID_00000183941011456857539880000009083996155426414742_" gradientUnits="userSpaceOnUse" x1="-57.2193" y1="178.1213" x2="-56.2193" y2="178.1213" gradientTransform="matrix(105.698 0 0 -105.698 6084.5991 18899.9668)">
				<stop  offset="0" style="stop-color:#3a8dea"/>
				<stop  offset="1" style="stop-color:#164b86"/>
			</linearGradient>
			
				<line style="fill:none;stroke:url(#SVGID_00000183941011456857539880000009083996155426414742_);stroke-width:0.3523;stroke-miterlimit:35.2327;" x1="69.3" y1="56.6" x2="36.6" y2="89.2"/>
			
				<linearGradient id="SVGID_00000139986304846612472040000017558064654595900573_" gradientUnits="userSpaceOnUse" x1="-57.2193" y1="178.1213" x2="-56.2193" y2="178.1213" gradientTransform="matrix(105.698 0 0 -105.698 6051.9834 18899.9668)">
				<stop  offset="0" style="stop-color:#3a8dea"/>
				<stop  offset="1" style="stop-color:#164b86"/>
			</linearGradient>
			
				<line style="fill:none;stroke:url(#SVGID_00000139986304846612472040000017558064654595900573_);stroke-width:0.3523;stroke-miterlimit:35.2327;" x1="36.6" y1="89.2" x2="4" y2="56.6"/>
			
				<linearGradient id="SVGID_00000129170433711040241310000013265280956473597594_" gradientUnits="userSpaceOnUse" x1="-57.315" y1="178.3625" x2="-56.315" y2="178.3625" gradientTransform="matrix(147.9772 0 0 -147.9772 8495.1162 26450.1836)">
				<stop  offset="0" style="stop-color:#3a8dea"/>
				<stop  offset="1" style="stop-color:#164b86"/>
			</linearGradient>
			
				<circle style="fill:none;stroke:url(#SVGID_00000129170433711040241310000013265280956473597594_);stroke-width:0.3523;stroke-miterlimit:35.2327;" cx="36.6" cy="56.6" r="22.8"/>
		</g>
	</g>
	
		<linearGradient id="SVGID_00000147177972830207833260000010412446068322345360_" gradientUnits="userSpaceOnUse" x1="-57.1953" y1="166.2996" x2="-56.1953" y2="166.2996" gradientTransform="matrix(98.6514 0 0 -7.0465 5657.2974 1220.8241)">
		<stop  offset="0" style="stop-color:#3a8dea"/>
		<stop  offset="1" style="stop-color:#164b86"/>
	</linearGradient>
	
		<rect x="14.9" y="47.9" style="fill:url(#SVGID_00000147177972830207833260000010412446068322345360_);" width="30.4" height="2.2"/>
	
		<linearGradient id="SVGID_00000063605432051801817310000005838005600031917497_" gradientUnits="userSpaceOnUse" x1="-57.0517" y1="166.2996" x2="-56.0517" y2="166.2996" gradientTransform="matrix(70.4653 0 0 -7.0465 4035.0649 1212.1266)">
		<stop  offset="0" style="stop-color:#3a8dea"/>
		<stop  offset="1" style="stop-color:#164b86"/>
	</linearGradient>
	
		<rect x="14.9" y="39.2" style="fill:url(#SVGID_00000063605432051801817310000005838005600031917497_);" width="21.7" height="2.2"/>
	
		<linearGradient id="SVGID_00000096058498050998677300000013887484724298855577_" gradientUnits="userSpaceOnUse" x1="-56.8364" y1="166.2996" x2="-55.8364" y2="166.2996" gradientTransform="matrix(49.3257 0 0 -7.0465 2818.3909 1229.5215)">
		<stop  offset="0" style="stop-color:#3a8dea"/>
		<stop  offset="1" style="stop-color:#164b86"/>
	</linearGradient>
	
		<rect x="14.9" y="56.6" style="fill:url(#SVGID_00000096058498050998677300000013887484724298855577_);" width="15.2" height="2.2"/>
	<polygon class="st16" points="62.7,63.1 62.7,34.9 10.5,34.9 10.5,63.1 13.8,63.1 	"/>
	<rect x="58.4" y="30.5" class="st16" width="4.3" height="2.2"/>
	<rect x="10.5" y="30.5" class="st16" width="45.7" height="2.2"/>
	<polygon class="st16" points="10.5,34.9 10.5,63.1 61.6,63.1 62.7,63.1 62.7,34.9 	"/>
	<rect x="10.5" y="30.5" class="st16" width="45.7" height="2.2"/>
	<rect x="58.4" y="30.5" class="st16" width="4.3" height="2.2"/>
	
		<linearGradient id="SVGID_00000066477379740242035910000011078470118673235841_" gradientUnits="userSpaceOnUse" x1="-57.315" y1="166.2996" x2="-56.315" y2="166.2996" gradientTransform="matrix(147.9772 0 0 -7.0465 8491.8555 1203.4292)">
		<stop  offset="0" style="stop-color:#3a8dea"/>
		<stop  offset="1" style="stop-color:#164b86"/>
	</linearGradient>
	
		<rect x="10.5" y="30.5" style="fill:url(#SVGID_00000066477379740242035910000011078470118673235841_);" width="45.7" height="2.2"/>
	
		<linearGradient id="SVGID_00000034081471901938836570000011424992806717362317_" gradientUnits="userSpaceOnUse" x1="-55.0416" y1="166.2996" x2="-54.0416" y2="166.2996" gradientTransform="matrix(14.0931 0 0 -7.0465 834.0876 1203.4292)">
		<stop  offset="0" style="stop-color:#3a8dea"/>
		<stop  offset="1" style="stop-color:#164b86"/>
	</linearGradient>
	
		<rect x="58.4" y="30.5" style="fill:url(#SVGID_00000034081471901938836570000011424992806717362317_);" width="4.3" height="2.2"/>
	
		<linearGradient id="SVGID_00000000214614179035444520000006066207364175592847_" gradientUnits="userSpaceOnUse" x1="-57.1677" y1="177.9914" x2="-56.1677" y2="177.9914" gradientTransform="matrix(91.6049 0 0 -91.6049 5277.8315 16379.9668)">
		<stop  offset="0" style="stop-color:#3a8dea"/>
		<stop  offset="1" style="stop-color:#164b86"/>
	</linearGradient>
	<path style="fill:url(#SVGID_00000000214614179035444520000006066207364175592847_);" d="M55.1,60.9c-7.8,0-14.1,6.3-14.1,14.1
		s6.3,14.1,14.1,14.1s14.1-6.3,14.1-14.1S62.9,60.9,55.1,60.9z M52.9,69.6h-2.2c-0.7,0-1.1,0.4-1.1,1.1v2c0,1-0.4,1.8-1.1,2.4
		c0.7,0.7,1.1,1.5,1.1,2.4v2c0,0.7,0.4,1.1,1.1,1.1h2.2v2.2h-2.2c-1.8,0-3.3-1.4-3.3-3.3v-1.1c0-1.2-1-2.2-2.2-2.2V74
		c1.2,0,2.2-1,2.2-2.2v-1.1c0-1.8,1.4-3.3,3.3-3.3h2.2V69.6z M64.9,76.2c-1.2,0-2.2,1-2.2,2.2v1.1c0,1.8-1.4,3.3-3.3,3.3h-2.2v-2.2
		h2.2c0.7,0,1.1-0.4,1.1-1.1v-2c0-1,0.4-1.8,1.1-2.4c-0.7-0.7-1.1-1.5-1.1-2.4v-2c0-0.7-0.4-1.1-1.1-1.1h-2.2v-2.2h2.2
		c1.8,0,3.3,1.4,3.3,3.3v1.1c0,1.2,1,2.2,2.2,2.2V76.2z"/>
	
		<linearGradient id="SVGID_00000047059730773349622600000013847895255698218123_" gradientUnits="userSpaceOnUse" x1="-57.2671" y1="175.7992" x2="-56.2671" y2="175.7992" gradientTransform="matrix(123.3143 0 0 -28.1861 7065.8789 5024.7432)">
		<stop  offset="0" style="stop-color:#3a8dea"/>
		<stop  offset="1" style="stop-color:#164b86"/>
	</linearGradient>
	<path style="fill:url(#SVGID_00000047059730773349622600000013847895255698218123_);" d="M42.1,65.3H4v6.5C4,73,5,74,6.2,74h32.7
		C39,70.7,40.2,67.8,42.1,65.3z M36.6,69.6c-0.7,0-1.1-0.4-1.1-1.1s0.4-1.1,1.1-1.1c0.7,0,1.1,0.4,1.1,1.1S37.3,69.6,36.6,69.6z"/>
	
		<linearGradient id="SVGID_00000058569031251919684900000017321147375727878018_" gradientUnits="userSpaceOnUse" x1="-57.3449" y1="177.9914" x2="-56.3449" y2="177.9914" gradientTransform="matrix(169.1168 0 0 -91.6049 9708.5293 16353.874)">
		<stop  offset="0" style="stop-color:#3a8dea"/>
		<stop  offset="1" style="stop-color:#164b86"/>
	</linearGradient>
	<path style="fill:url(#SVGID_00000058569031251919684900000017321147375727878018_);" d="M55.1,58.8c2.7,0,5.3,0.7,7.6,1.8V34.9
		H10.5v28.3H44C47,60.4,50.9,58.8,55.1,58.8z M12.7,37h26.1v6.5H12.7V37z M12.7,45.7h34.8v6.5H12.7V45.7z M12.7,60.9v-6.5h19.6v6.5
		H12.7z"/>
	
		<linearGradient id="SVGID_00000036956937245923370550000016930930952631084477_" gradientUnits="userSpaceOnUse" x1="-57.3868" y1="178.262" x2="-56.3868" y2="178.262" gradientTransform="matrix(211.396 0 0 -126.8376 12135.3545 22653.875)">
		<stop  offset="0" style="stop-color:#3a8dea"/>
		<stop  offset="1" style="stop-color:#164b86"/>
	</linearGradient>
	<path style="fill:url(#SVGID_00000036956937245923370550000016930930952631084477_);" d="M64.9,62c0.4,0.3,0.9,0.7,1.3,1.1h3v-37
		c0-1.2-1-2.2-2.2-2.2H6.2C5,24,4,25,4,26.2v37h4.3V28.3h56.5V62z"/>
	
		<linearGradient id="SVGID_00000000219838228916224220000000009592744465278655_" gradientUnits="userSpaceOnUse" x1="-57.1076" y1="176.8547" x2="-56.1076" y2="176.8547" gradientTransform="matrix(79.2735 0 0 -42.2792 4549.623 7559.9639)">
		<stop  offset="0" style="stop-color:#3a8dea"/>
		<stop  offset="1" style="stop-color:#164b86"/>
	</linearGradient>
	<path style="fill:url(#SVGID_00000000219838228916224220000000009592744465278655_);" d="M38.9,76.2h-7.7v6.5h-3.3
		c-3,0-5.4,2.4-5.4,5.4v1.1H47C42.4,86.6,39.2,81.7,38.9,76.2z"/>
</g>
</svg>
